<svg width="1280" height="748" viewBox="0 0 1280 748" fill="none" xmlns="http://www.w3.org/2000/svg">
<path d="M0 7.99998C0 3.5817 3.58172 0 8 0H1272C1276.42 0 1280 3.58172 1280 8V740C1280 744.418 1276.42 748 1272 748H8.00003C3.58175 748 0 744.418 0 740V7.99998Z" fill="black"/>
<path d="M1.5 29.5H1278.5V742C1278.5 744.485 1276.49 746.5 1274 746.5H5.99998C3.51471 746.5 1.5 744.485 1.5 742V29.5Z" fill="white"/>
<path d="M1.5 29.5H1278.5V742C1278.5 744.485 1276.49 746.5 1274 746.5H5.99998C3.51471 746.5 1.5 744.485 1.5 742V29.5Z" stroke="black" stroke-width="3"/>
<circle cx="24" cy="16" r="6" fill="white"/>
<circle cx="48" cy="16" r="6" fill="white"/>
<circle cx="72" cy="16" r="6" fill="white"/>
</svg>
